<?xml version="1.0" encoding="utf-8"?>
<!-- Generator: Adobe Illustrator 18.0.0, SVG Export Plug-In . SVG Version: 6.00 Build 0)  -->
<!DOCTYPE svg PUBLIC "-//W3C//DTD SVG 1.1//EN" "http://www.w3.org/Graphics/SVG/1.1/DTD/svg11.dtd">
<svg version="1.1"
	 id="svg3003" sodipodi:docname="Starbucks_Corporation_Logo_2011.svg" inkscape:version="0.48.0 r9654" xmlns:dc="http://purl.org/dc/elements/1.1/" xmlns:cc="http://creativecommons.org/ns#" xmlns:rdf="http://www.w3.org/1999/02/22-rdf-syntax-ns#" xmlns:svg="http://www.w3.org/2000/svg" xmlns:sodipodi="http://sodipodi.sourceforge.net/DTD/sodipodi-0.dtd" xmlns:inkscape="http://www.inkscape.org/namespaces/inkscape"
	 xmlns="http://www.w3.org/2000/svg" xmlns:xlink="http://www.w3.org/1999/xlink" x="0px" y="0px" viewBox="-6 -5 300 300"
	 enable-background="new -6 -5 300 300" xml:space="preserve">
<title  id="title3036">Starbucks Corporation
 Logo</title>
<sodipodi:namedview  inkscape:pageshadow="2" inkscape:window-x="-8" inkscape:current-layer="svg3003" inkscape:pageopacity="0" inkscape:window-width="1280" inkscape:window-y="-8" inkscape:window-maximized="1" inkscape:window-height="750" guidetolerance="10" showgrid="false" inkscape:cy="219.77498" inkscape:cx="108.82718" inkscape:zoom="2.3162919" borderopacity="1" bordercolor="#666666" pagecolor="#ffffff" gridtolerance="10" objecttolerance="10" id="namedview3015">
	</sodipodi:namedview>
<g id="text3021" transform="matrix(2.7809611,0,0,2.7809611,-616.7962,-1116.1732)">
</g>
<g id="g4387">
	<path id="path3040" fill="#FFFFFF" d="M-200.5,476c0,82.6-66.6,149.5-148.7,149.5c-82.1,0-148.7-66.9-148.7-149.5
		c0-82.6,66.6-149.5,148.7-149.5S-200.5,393.4-200.5,476z"/>
	<g id="g4381">
		<path id="inner_artwork" inkscape:connector-curvature="0" fill="#007042" d="M-350.5,379.6c5.2,3,10.8,6.9,15,11l-1.7,1.7
			c-8.3-0.9-17.1,0.2-25,0.3c-0.9-0.9-2.7-2.2-1-3.3L-350.5,379.6L-350.5,379.6z M-203,483.3c0.1,3.8,0.5,7-1,10.9
			c-15.2,4.3-25.3-11.8-40-9.4l1.7,8.4c13.7,0.4,22.2,13.6,36.4,13c-2,4,0.9,14.6-8,10.4c-9.2-2.2-15.9-10.4-26-10.4
			c-1.2,2.2-0.4,5.3-0.7,8c10.7,1.7,18.4,10.7,29,12.4c-1,3.7-2,7.8-5,10c-8.7-2.1-15.5-9.9-24.7-9.7l-1.6,7.7
			c8.8,0.2,14.5,8,22.4,10.3c0.2,3.2-2.7,6.1-4.3,9c-7-2.1-12.4-8.1-20.4-7.7c-0.1-3,1.7-6.4,1-9.7c-9,2.7-15-5.7-21.7-10.7
			c-0.2-16.4-17.5-27.2-18.4-42.5c-0.2-3.1,0.3-6.3,1.7-9.9c5.7-13.1,3.9-30.2-2.3-42.4c-1.9-3.2-5.2-5.8-8.4-7.7
			c4.6,9.7,10.1,21.1,7.4,33c-0.3,9.2-5.7,18-5.8,26.9c0,3.2,0.7,6.3,2.5,9.5c7.2,13,20.3,25.4,15.4,41.7c-1.3,5-5.4,8.9-6.4,14
			c8.5,7,16.5,14.9,27.7,15.4c4-2.6,1.8-13.9,10-8.7l12,6c-0.9,3.2-3.6,6.1-6,8.3c-4.6-2.2-9-4.9-14.7-4.7c-1.7,1.8-3.1,3.8-3,6.3
			c4,0.7,7.7,2.3,11,4.7c-1.6,3.3-4.6,5.4-7.4,8l-9.3-3.3c-1.6,2.2-4.8,4.6-3.7,7c2.1,0.9,4.4,2.1,6,3.7c-4.1,4.4-9.3,7.3-14.4,10.3
			c-4.3-14.1-18.6-24-17.3-40.4l-0.7-0.7c-3.3,3.8-2.2,9.8-2,14.7c4,10.2,13.6,18.1,15,29.4c-1.7,2.9-5.4,3.5-8.3,4.7
			c0.3-20.2-30.4-35.6-10.7-56.1c6.6-10,17.6-19.6,13.7-33.4c-4-13.3-18.2-21.6-18-36.5l0-1.2c3.2-15.6,13-32.2,5-48.7
			c-2.2-6.7-7.2-14.2-14-17c10.1,11.6,14.1,30.5,8.3,46.1c-2.9,6.2-6.9,13.6-7.3,20.9h0c-0.2,3.8,0.6,7.6,3,11.2
			c7.7,12.5,21,26.2,13.3,42.4c-8.7,13-23.8,26.2-15.4,43.4c6.1,10.2,15.6,20.4,13,33l-10,3.3c6.7-23.5-26-37.3-12.3-60.7
			c8.5-12.6,23.6-24.4,15-41c-5.1-10.3-15.7-16.5-15.4-29.4l0.4-2.2c3.4-18.3,17.4-35.7,7.6-55.2c-2.6-5.8-7.7-11.7-13.3-15
			l-0.3,0.3c11.4,11,14.8,29.1,8.7,43.7c-2.9,8.5-9.1,17.1-10.4,26.2c-0.6,4.3-0.1,8.8,2.4,13.5c7.2,11.4,19.9,23.6,12,38.4
			c-8.3,12.2-22.2,24.1-16.7,40c6.1,13.9,18.9,27.2,12,44.4l-10.3,2.3c8.2-16.8-4.1-33.5-11.3-48.1c-8.8-20.9,18.9-30.9,19.3-50.1
			c-0.1-12.3-13.2-19.4-16-30.7c-5.7-4.8-11.6,1.9-18.4,0.7c-5,1-12.7-6.9-15.7,1.7c-3.6,12.6-19.8,21.8-12.7,36.7
			c6.8,13.2,23.1,22.9,17.7,40.1c-4.9,16-21,31.2-11,49.7c-4.1-1.3-11.8,1.2-11.7-5.4c-6.3-22.4,20.7-35.4,12.3-57.7
			c-3.9-13.7-21.6-21.2-17.7-37.7c2.9-13.6,18.1-23,16-37.9c-0.2-1.2-0.5-2.5-0.9-3.8c-5.7-16-17.3-32-10.4-50.7
			c1.9-5.3,5.7-9.9,9-14.7c-11,5.9-16.6,18.4-16.3,31c-0.5,13.8,9.7,25.6,11.2,38.2c0.6,5.1-0.3,10.3-3.8,15.8
			c-7.2,9.8-16.7,20.1-12.3,33.1c4.1,13,20.4,20.9,19.4,36c-0.1,17.9-20.9,29.1-15,49.1l-10.4-3.4c-4.1-17.8,14.8-26.9,15-43.4
			c2.7-18.9-21.5-26-20-44.4c-0.1-14,12.2-22.9,17.7-34.7c0.9-2.9,1.2-5.6,1.1-8.2c-0.7-13-12.4-23.2-10.5-37.9
			c0.7-10.8,4.3-20.2,11.3-28.4c-9.7,3.9-13.7,15-16.3,24.4c-4.6,15,6.4,28.5,7.5,41.9c0.5,5.9-1,11.8-6.5,17.9
			c-8,9.4-16.1,21.4-10.4,34.1c6.1,14,25.4,24.9,17,42.4c-4.6,11-15.5,19.4-15,32.4c-2.9-1.2-5.9-2.4-8.3-4.7
			c0-16.6,23.6-26.9,12.3-44.4c-1,3.4-1.2,8.1-2,12c-3.9,10.1-12.2,18.2-15.4,28.7c-5.2-2-10.7-6.2-15-10.7l6-3.7
			c-0.7-2.2-2.4-4.1-4-6c-3.9-0.5-6.5,2-9.7,3c-2.8-2.5-5.5-4.7-7.7-7.7c2-5.7,17.6-1,9.7-10.3c-5.3-3.3-10.7,1.4-15.4,3.7l-6.3-8
			c5.5-3.3,10.9-8,17.7-6.7c1.7,3,1.8,7.4,5,9c11.5-0.2,19.6-8.9,28.4-15.7c-6.1-9.1-11.1-21.7-5.7-32.7c4.4-11,15.7-20.3,16.2-32.5
			c0.1-2.8-0.3-5.7-1.5-8.8c-6-15.5-8.1-36.4,3.3-50.1c-6.2,1.7-9.9,9.4-12,15.3c-6.9,15.1,1.8,29.1,2.1,43.6c0,2.6-0.2,5.2-0.8,7.8
			c-5.9,11.9-15.5,22.3-17,36c-6.8,4.3-12.4,11.9-22,9.3c-0.3,2.6,0.4,6.5,1.3,9.3c-7.7-0.3-12.9,5.3-19.4,8
			c-3.4-1.1-4.3-5.6-5.7-8.7c7.6-2.6,13-10.1,21.7-10c1-2.8-0.6-5.4-1-8c-10.8-4.8-27.9,23.7-29.3-1c10.8-0.7,17.7-10.7,28.4-11.7
			l0.3-8c-12.1-1.2-19.9,11.2-32,10l-2.7-10.7c14,0.9,22.4-11.7,35.7-12.4c1.8-2.3,2-5.8,2.3-9c-14.6-1.9-24.6,14.3-40,9.3
			c0,0-0.5-6.7-0.8-10.5h0c-0.1-1.5-0.2-2.5-0.2-2.5c13.8,5.4,25.9-4.6,37.7-9.7c3-0.9,7.7,0.7,9-2.7c-0.1-2.6,4.6-5.6,0.7-7.3
			c-17.3-2.3-28.7,18.5-46.4,9l-1.3-2.7c3.7-50.3,32-98.9,79.1-122.8c19.1-10.9,42.7-16.4,66.6-16.6c28.8-0.2,57.9,7.3,79.6,22.6
			c21,12.9,41.1,34.2,52.1,55.7c10.4,18.9,15.2,40.1,16.7,62.7c-18.2,13.8-30.5-13-49.1-7c1,2.9,1.6,5.9,3.7,8.3
			c16.5-0.1,27.8,17.1,45,10.3L-203,483.3L-203,483.3z M-412.6,421.4c-11.6-7.6-26.2-0.4-37,3.7c-1-10.1-5.1-19.4-13.7-26
			c-0.8-0.4-2-1.3-3-1.3c-0.6,0-1.2,0.2-1.7,1c3.9,23.9-11.7,40.6-22.7,58.7c3.7,3,9.6,2.6,14,1.7c11.7-4.7,22.8-12.8,36.7-10
			c4.1-7,11-13.8,16.7-19.4C-419.8,426.7-415.1,424.8-412.6,421.4L-412.6,421.4z M-377.2,436.4c-0.2,1.4,0.1,4,2.3,3
			c3.5-4.8,9.6-1,13.3-0.7v-1.3c-2.1-3.3-6.3-4.9-10.7-4.7c-1,0-2,0.2-3,0.4C-376.7,433.4-377.7,434.7-377.2,436.4L-377.2,436.4z
			 M-322.8,422.1c-3.1-6.9-10.2-9.7-16.7-11.4c-3.2-0.4-6.5-0.7-9.7-0.7c-0.6,0-1.2,0-1.8,0c-9.1,0.2-17.8,2.5-23.2,10
			c-0.8,2.1-4.1,5.1-1,7c7-0.4,15-1.3,19.7,4.7c0,5.3,3.5,12.5-2.3,15c-4.8-4.4-10.5,1.9-15.7-1.7c-2.5-1.4-4,0.2-5,2.4
			c-1.4,13.8,5.8,29,18.7,36.7c5.2,1.9,12.3,3.7,17.7,1c13.1-6.1,18.6-20.1,21-33c-0.3-2.5-0.2-7.2-3.7-7.4c-3.9,2.5-9.6,1-13.7,0
			c-2.4,0.8-2.5,4.4-5.3,5l-1.7-1.3c-1.4-6.1-2.3-14.8,3.3-19c6.3-2.6,13.8-3.7,20.4-1.7C-320.6,425.6-322.5,423.9-322.8,422.1
			L-322.8,422.1z M-329.5,433c-0.4,0-0.9,0-1.3,0c-2.3,1.6-9.1,0.4-6.7,5.7c4.2-3.3,10.1-1,14.4,0.7c1.6-0.8,1.2-2.3,1.3-3.7
			C-323.2,433.2-326.4,433-329.5,433z M-281.1,386c-8.2-0.4-15.1,4.2-22.7,6.4c-0.7-6.4,4.2-13.2,5.3-19.7c-12.2,0.8-21.9,8.1-32,14
			c-2.3-5.7-4.7-11.3-7-17l13.3-12.7l0.3-1.7l-18-1c-3.1-5.4-4.3-12-8-17c-3,5.7-5,11.7-8,17.3l-18,1v1.3l13.7,12.3
			c-1.7,6.3-3.2,13.2-7.3,18c-8-4.8-15.9-10-24.7-13.3c-2.1-0.7-5.1-1.8-7-0.3c2.8,6.1,6.7,12.7,6,19.4c-3.7-0.7-6.6-3-10-4
			c-4.1-1.1-9-3.3-13-2c6.7,9.3,12.1,19.1,14,30.4c22.1-10.7,48-16.6,74.8-12c12.6,2,24.1,7.1,35.4,11.3
			C-293.7,404.9-286.2,395.5-281.1,386L-281.1,386z M-243,450.1c11.3,3,22.7,15.4,34.7,7.3c-10.5-17.4-26-33.4-21.7-56.1
			c0.5-1.5-0.5-3.1-2-3.3c-6.8,2.8-12,9.5-14.7,16c-1.1,3.9-1.8,8-3.3,11.7c-8.1-4.2-16.8-8.3-26.7-7.3c-3.6,0.4-8.7,0.7-9.3,4.3
			c11.2,6,20.5,16,27.4,26.7C-253.9,448.6-248.1,449.3-243,450.1L-243,450.1z M-361.9,465.8l0.3,2c4.3,2.9,5.7,7.8,11.7,7.4
			c5.3,0.3,9.3-4.7,12-8.7C-345.1,465.4-353.8,467-361.9,465.8L-361.9,465.8z M-355.8,456.8c0.2,0.9-0.6,2.2,0.7,2.7
			c3.6-0.8,10,1.9,12-2.3c-1.4-1.6-3.7-2.3-6-2.3C-351.6,454.8-354.1,455.5-355.8,456.8z"/>
		<g id="g4377">
			<path id="rect3815" opacity="0.99" fill="#FFFFFF" enable-background="new    " d="M-361.8,452.9h24.4v10h-24.4V452.9z"/>
			<path id="path3032-6" sodipodi:nodetypes="cccsccc" inkscape:connector-curvature="0" fill="#007042" d="M-357.3,458.2
				c3.2,0.7,3.9,1.9,6.4,2.2c2.6,0,2.3-0.6,6.9-2.2c0.3-0.1,0.7-0.8,0.2-1.3c-2.9-2.8-4.9-0.8-6.6-0.8c-2.4,0-4.6-2-7,0.6
				C-357.8,457.4-358,457.9-357.3,458.2L-357.3,458.2z"/>
		</g>
	</g>
</g>
<circle fill="#007042" cx="144" cy="145" r="150"/>
<g>
	<g>
		<polygon fill="#FFFFFF" points="184.2,225 104.2,225 94.2,85 194.2,85 		"/>
		<rect x="84.2" y="65" fill="#FFFFFF" width="119.5" height="10"/>
		<polygon fill="#FFFFFF" points="194.2,65 94.2,65 99.2,45 189.2,45 		"/>
	</g>
	<circle fill="#007042" cx="144" cy="140" r="25"/>
</g>
<ellipse fill="#FFFFFF" cx="144" cy="225" rx="40" ry="10"/>
</svg>
